<svg width="220" height="70" viewBox="0 0 220 70" fill="none" xmlns="http://www.w3.org/2000/svg">
  <rect width="220" height="70" rx="14" fill="#F7F8FA"/>
  <g transform="translate(10 8)">
    <path d="M130 6c-4 4-3 11 1 14l24 18c4 3 10 2 13-2 4-4 3-10-1-13L143 4c-4-3-10-2-13 2Z" fill="#E8D22F"/>
    <path d="M118 22c-4 4-3 10 1 14l23 17c4 3 10 2 13-2 4-4 3-10-1-13L131 20c-4-3-10-2-13 2Z" fill="#3C9D58"/>
    <path d="M139 40c-3 3-3 8 0 11l8 7c3 3 8 3 11 0l8-8c3-3 3-8 0-11l-8-7c-3-3-8-3-11 0l-8 8Z" fill="#DA3A1E"/>
  </g>
  <text x="18" y="44" font-size="18" font-family="Segoe UI, Arial, sans-serif" font-weight="700" fill="#5C636A">MAURIPOST</text>
</svg>
